<mxfile host="app.diagrams.net" agent="Mozilla/5.0 (Windows NT 10.0; Win64; x64) AppleWebKit/537.36 (KHTML, like Gecko) Chrome/126.0.0.0 Safari/537.36" version="24.7.5">
  <diagram name="Page-1" id="sHMGXAZ-2pIGjKH5YxWj">
    <mxGraphModel dx="2465" dy="803" grid="1" gridSize="10" guides="1" tooltips="1" connect="1" arrows="1" fold="1" page="1" pageScale="1" pageWidth="850" pageHeight="1100" background="none" math="0" shadow="0">
      <root>
        <mxCell id="0" />
        <mxCell id="1" parent="0" />
        <mxCell id="x5Plf8LEQ-hN1UP6LT7Q-1" value="" style="outlineConnect=0;dashed=0;verticalLabelPosition=bottom;verticalAlign=top;align=center;html=1;shape=mxgraph.aws3.management_console;fillColor=#D2D3D3;gradientColor=none;" parent="1" vertex="1">
          <mxGeometry x="10" y="330" width="110" height="100" as="geometry" />
        </mxCell>
        <mxCell id="x5Plf8LEQ-hN1UP6LT7Q-26" style="edgeStyle=orthogonalEdgeStyle;rounded=0;orthogonalLoop=1;jettySize=auto;html=1;exitX=1;exitY=0.5;exitDx=0;exitDy=0;exitPerimeter=0;" parent="1" edge="1">
          <mxGeometry relative="1" as="geometry">
            <mxPoint x="500" y="180" as="sourcePoint" />
            <mxPoint x="760" y="180" as="targetPoint" />
          </mxGeometry>
        </mxCell>
        <mxCell id="x5Plf8LEQ-hN1UP6LT7Q-2" value="" style="shape=mxgraph.cisco.controllers_and_modules.system_controller;html=1;pointerEvents=1;dashed=0;fillColor=#036897;strokeColor=#ffffff;strokeWidth=2;verticalLabelPosition=bottom;verticalAlign=top;align=center;outlineConnect=0;" parent="1" vertex="1">
          <mxGeometry x="400" y="160" width="100" height="90" as="geometry" />
        </mxCell>
        <mxCell id="x5Plf8LEQ-hN1UP6LT7Q-3" value="Page" style="html=1;whiteSpace=wrap;strokeColor=none;fillColor=#0079D6;labelPosition=center;verticalLabelPosition=middle;verticalAlign=top;align=center;fontSize=12;outlineConnect=0;spacingTop=-6;fontColor=#FFFFFF;sketch=0;shape=mxgraph.sitemap.page;" parent="1" vertex="1">
          <mxGeometry x="400" y="470" width="100" height="90" as="geometry" />
        </mxCell>
        <mxCell id="x5Plf8LEQ-hN1UP6LT7Q-27" style="edgeStyle=orthogonalEdgeStyle;rounded=0;orthogonalLoop=1;jettySize=auto;html=1;" parent="1" source="x5Plf8LEQ-hN1UP6LT7Q-4" target="x5Plf8LEQ-hN1UP6LT7Q-6" edge="1">
          <mxGeometry relative="1" as="geometry">
            <Array as="points">
              <mxPoint x="895" y="180" />
              <mxPoint x="895" y="180" />
            </Array>
          </mxGeometry>
        </mxCell>
        <mxCell id="x5Plf8LEQ-hN1UP6LT7Q-4" value="Layers" style="sketch=0;outlineConnect=0;fontColor=#232F3E;gradientColor=none;strokeColor=#232F3E;fillColor=#ffffff;dashed=0;verticalLabelPosition=bottom;verticalAlign=top;align=center;html=1;fontSize=12;fontStyle=0;aspect=fixed;shape=mxgraph.aws4.resourceIcon;resIcon=mxgraph.aws4.layers;" parent="1" vertex="1">
          <mxGeometry x="765" y="160" width="90" height="90" as="geometry" />
        </mxCell>
        <mxCell id="x5Plf8LEQ-hN1UP6LT7Q-29" style="edgeStyle=orthogonalEdgeStyle;rounded=0;orthogonalLoop=1;jettySize=auto;html=1;curved=1;exitX=0.557;exitY=1.007;exitDx=0;exitDy=0;exitPerimeter=0;" parent="1" source="x5Plf8LEQ-hN1UP6LT7Q-5" target="x5Plf8LEQ-hN1UP6LT7Q-6" edge="1">
          <mxGeometry relative="1" as="geometry">
            <mxPoint x="1015" y="260" as="targetPoint" />
            <Array as="points">
              <mxPoint x="1150" y="280" />
              <mxPoint x="1025" y="280" />
            </Array>
          </mxGeometry>
        </mxCell>
        <mxCell id="x5Plf8LEQ-hN1UP6LT7Q-5" value="" style="html=1;verticalLabelPosition=bottom;align=center;labelBackgroundColor=#ffffff;verticalAlign=top;strokeWidth=2;strokeColor=#0080F0;shadow=0;dashed=0;shape=mxgraph.ios7.icons.data;" parent="1" vertex="1">
          <mxGeometry x="1105" y="165.22" width="80" height="79.55" as="geometry" />
        </mxCell>
        <mxCell id="x5Plf8LEQ-hN1UP6LT7Q-28" style="edgeStyle=orthogonalEdgeStyle;rounded=0;orthogonalLoop=1;jettySize=auto;html=1;curved=1;entryX=0.5;entryY=-0.066;entryDx=0;entryDy=0;entryPerimeter=0;" parent="1" source="x5Plf8LEQ-hN1UP6LT7Q-6" target="x5Plf8LEQ-hN1UP6LT7Q-5" edge="1">
          <mxGeometry relative="1" as="geometry">
            <mxPoint x="1095" y="180" as="targetPoint" />
            <mxPoint x="1025" y="180.05882352941182" as="sourcePoint" />
            <Array as="points">
              <mxPoint x="1025" y="130" />
              <mxPoint x="1145" y="130" />
            </Array>
          </mxGeometry>
        </mxCell>
        <mxCell id="x5Plf8LEQ-hN1UP6LT7Q-30" style="edgeStyle=orthogonalEdgeStyle;rounded=0;orthogonalLoop=1;jettySize=auto;html=1;" parent="1" source="x5Plf8LEQ-hN1UP6LT7Q-6" target="x5Plf8LEQ-hN1UP6LT7Q-4" edge="1">
          <mxGeometry relative="1" as="geometry">
            <Array as="points">
              <mxPoint x="895" y="230" />
              <mxPoint x="895" y="230" />
            </Array>
          </mxGeometry>
        </mxCell>
        <mxCell id="x5Plf8LEQ-hN1UP6LT7Q-6" value="Layers" style="sketch=0;outlineConnect=0;fontColor=#232F3E;gradientColor=none;strokeColor=#232F3E;fillColor=#ffffff;dashed=0;verticalLabelPosition=bottom;verticalAlign=top;align=center;html=1;fontSize=12;fontStyle=0;aspect=fixed;shape=mxgraph.aws4.resourceIcon;resIcon=mxgraph.aws4.layers;" parent="1" vertex="1">
          <mxGeometry x="935" y="160" width="90" height="90" as="geometry" />
        </mxCell>
        <mxCell id="x5Plf8LEQ-hN1UP6LT7Q-7" value="&lt;b&gt;&lt;font style=&quot;font-size: 12px;&quot;&gt;Converted Student Data into Obect format&lt;/font&gt;&lt;/b&gt;" style="points=[[0.25,0,0],[0.5,0,0],[0.75,0,0],[1,0.25,0],[1,0.5,0],[1,0.75,0],[0.75,1,0],[0.5,1,0],[0.25,1,0],[0,0.75,0],[0,0.5,0],[0,0.25,0]];rounded=1;dashed=1;dashPattern=5 2 1 2;labelPosition=center;verticalLabelPosition=middle;align=center;verticalAlign=middle;fontSize=8;html=1;whiteSpace=wrap;" parent="1" vertex="1">
          <mxGeometry x="495" y="340" width="140" height="60" as="geometry" />
        </mxCell>
        <mxCell id="x5Plf8LEQ-hN1UP6LT7Q-9" value="Retrieve Student Information" style="text;html=1;align=center;verticalAlign=middle;whiteSpace=wrap;rounded=0;fontStyle=1;fontSize=15;" parent="1" vertex="1">
          <mxGeometry x="20" y="270" width="70" height="30" as="geometry" />
        </mxCell>
        <mxCell id="x5Plf8LEQ-hN1UP6LT7Q-10" style="rounded=0;orthogonalLoop=1;jettySize=auto;html=1;exitX=0.965;exitY=0.035;exitDx=0;exitDy=0;exitPerimeter=0;entryX=0;entryY=1;entryDx=0;entryDy=0;entryPerimeter=0;" parent="1" source="x5Plf8LEQ-hN1UP6LT7Q-1" target="x5Plf8LEQ-hN1UP6LT7Q-2" edge="1">
          <mxGeometry relative="1" as="geometry" />
        </mxCell>
        <mxCell id="x5Plf8LEQ-hN1UP6LT7Q-11" value="&lt;b&gt;&lt;font style=&quot;font-size: 25px;&quot;&gt;Client&lt;/font&gt;&lt;/b&gt;" style="text;html=1;align=center;verticalAlign=middle;whiteSpace=wrap;rounded=0;" parent="1" vertex="1">
          <mxGeometry x="-100" y="355" width="70" height="30" as="geometry" />
        </mxCell>
        <mxCell id="x5Plf8LEQ-hN1UP6LT7Q-12" value="/getStudentInfo" style="text;html=1;align=center;verticalAlign=middle;whiteSpace=wrap;rounded=0;fontStyle=1;fontSize=15;" parent="1" vertex="1">
          <mxGeometry x="180" y="240" width="70" height="30" as="geometry" />
        </mxCell>
        <mxCell id="x5Plf8LEQ-hN1UP6LT7Q-13" value="&lt;b&gt;&lt;font style=&quot;font-size: 25px;&quot;&gt;Controller&lt;/font&gt;&lt;/b&gt;" style="text;html=1;align=center;verticalAlign=middle;whiteSpace=wrap;rounded=0;" parent="1" vertex="1">
          <mxGeometry x="410" y="100" width="70" height="30" as="geometry" />
        </mxCell>
        <mxCell id="x5Plf8LEQ-hN1UP6LT7Q-14" value="&lt;b&gt;&lt;font style=&quot;font-size: 25px;&quot;&gt;View&lt;/font&gt;&lt;/b&gt;" style="text;html=1;align=center;verticalAlign=middle;whiteSpace=wrap;rounded=0;" parent="1" vertex="1">
          <mxGeometry x="415" y="590" width="70" height="30" as="geometry" />
        </mxCell>
        <mxCell id="x5Plf8LEQ-hN1UP6LT7Q-17" value="&lt;b style=&quot;font-size: 25px;&quot;&gt;Model&lt;/b&gt;" style="text;html=1;align=center;verticalAlign=middle;whiteSpace=wrap;rounded=0;fontSize=25;" parent="1" vertex="1">
          <mxGeometry x="400" y="365" width="70" height="30" as="geometry" />
        </mxCell>
        <mxCell id="x5Plf8LEQ-hN1UP6LT7Q-18" style="rounded=0;orthogonalLoop=1;jettySize=auto;html=1;entryX=0.98;entryY=0.98;entryDx=0;entryDy=0;entryPerimeter=0;" parent="1" source="x5Plf8LEQ-hN1UP6LT7Q-3" target="x5Plf8LEQ-hN1UP6LT7Q-1" edge="1">
          <mxGeometry relative="1" as="geometry" />
        </mxCell>
        <mxCell id="x5Plf8LEQ-hN1UP6LT7Q-19" style="edgeStyle=orthogonalEdgeStyle;rounded=0;orthogonalLoop=1;jettySize=auto;html=1;exitX=0.5;exitY=1;exitDx=0;exitDy=0;exitPerimeter=0;entryX=0.5;entryY=0;entryDx=0;entryDy=0;entryPerimeter=0;curved=1;" parent="1" source="x5Plf8LEQ-hN1UP6LT7Q-2" target="x5Plf8LEQ-hN1UP6LT7Q-7" edge="1">
          <mxGeometry relative="1" as="geometry">
            <Array as="points">
              <mxPoint x="565" y="250" />
            </Array>
          </mxGeometry>
        </mxCell>
        <mxCell id="x5Plf8LEQ-hN1UP6LT7Q-20" style="edgeStyle=orthogonalEdgeStyle;rounded=0;orthogonalLoop=1;jettySize=auto;html=1;exitX=0.5;exitY=1;exitDx=0;exitDy=0;exitPerimeter=0;entryX=1;entryY=0.5;entryDx=0;entryDy=0;entryPerimeter=0;curved=1;" parent="1" source="x5Plf8LEQ-hN1UP6LT7Q-7" target="x5Plf8LEQ-hN1UP6LT7Q-3" edge="1">
          <mxGeometry relative="1" as="geometry" />
        </mxCell>
        <mxCell id="x5Plf8LEQ-hN1UP6LT7Q-21" value="/getStudentInfo" style="text;html=1;align=center;verticalAlign=middle;whiteSpace=wrap;rounded=0;fontStyle=1;fontSize=15;" parent="1" vertex="1">
          <mxGeometry x="415" y="440" width="70" height="30" as="geometry" />
        </mxCell>
        <mxCell id="x5Plf8LEQ-hN1UP6LT7Q-22" value="&lt;b&gt;&lt;font style=&quot;font-size: 25px;&quot;&gt;Service&lt;/font&gt;&lt;/b&gt;" style="text;html=1;align=center;verticalAlign=middle;whiteSpace=wrap;rounded=0;" parent="1" vertex="1">
          <mxGeometry x="775" y="120" width="70" height="30" as="geometry" />
        </mxCell>
        <mxCell id="x5Plf8LEQ-hN1UP6LT7Q-23" value="&lt;font style=&quot;font-size: 25px;&quot;&gt;&lt;b&gt;DAO&lt;/b&gt;&lt;/font&gt;" style="text;html=1;align=center;verticalAlign=middle;whiteSpace=wrap;rounded=0;" parent="1" vertex="1">
          <mxGeometry x="945" y="120" width="70" height="30" as="geometry" />
        </mxCell>
        <mxCell id="x5Plf8LEQ-hN1UP6LT7Q-24" value="&lt;b&gt;&lt;font style=&quot;font-size: 15px;&quot;&gt;Database&lt;/font&gt;&lt;/b&gt;" style="text;html=1;align=center;verticalAlign=middle;whiteSpace=wrap;rounded=0;" parent="1" vertex="1">
          <mxGeometry x="1205" y="190" width="70" height="30" as="geometry" />
        </mxCell>
        <mxCell id="x5Plf8LEQ-hN1UP6LT7Q-31" style="edgeStyle=orthogonalEdgeStyle;rounded=0;orthogonalLoop=1;jettySize=auto;html=1;entryX=1;entryY=0.5;entryDx=0;entryDy=0;entryPerimeter=0;" parent="1" edge="1">
          <mxGeometry relative="1" as="geometry">
            <mxPoint x="760" y="230" as="sourcePoint" />
            <mxPoint x="500" y="230" as="targetPoint" />
          </mxGeometry>
        </mxCell>
        <mxCell id="x5Plf8LEQ-hN1UP6LT7Q-32" value="&lt;b&gt;&lt;font style=&quot;font-size: 14px;&quot;&gt;Student Data&lt;/font&gt;&lt;/b&gt;" style="text;html=1;align=center;verticalAlign=middle;whiteSpace=wrap;rounded=0;" parent="1" vertex="1">
          <mxGeometry x="1050" y="290" width="100" height="30" as="geometry" />
        </mxCell>
        <mxCell id="x5Plf8LEQ-hN1UP6LT7Q-33" value="Sending Response" style="text;html=1;align=center;verticalAlign=middle;whiteSpace=wrap;rounded=0;fontStyle=1;fontSize=14;" parent="1" vertex="1">
          <mxGeometry x="200" y="420" width="130" height="40" as="geometry" />
        </mxCell>
        <mxCell id="x5Plf8LEQ-hN1UP6LT7Q-34" value="Sending Request" style="text;html=1;align=center;verticalAlign=middle;whiteSpace=wrap;rounded=0;fontStyle=1;fontSize=14;" parent="1" vertex="1">
          <mxGeometry x="150" y="204.76999999999998" width="130" height="40" as="geometry" />
        </mxCell>
        <mxCell id="x5Plf8LEQ-hN1UP6LT7Q-36" value="" style="rounded=0;whiteSpace=wrap;html=1;fillStyle=dots;fillColor=none;dashed=1;dashPattern=12 12;strokeWidth=2;strokeColor=#ec0909;" parent="1" vertex="1">
          <mxGeometry x="-110" y="80" width="770" height="550" as="geometry" />
        </mxCell>
        <mxCell id="x5Plf8LEQ-hN1UP6LT7Q-38" value="" style="rounded=0;whiteSpace=wrap;html=1;fillStyle=dots;fillColor=none;dashed=1;dashPattern=12 12;strokeWidth=2;strokeColor=#0941ec;" parent="1" vertex="1">
          <mxGeometry x="-195" y="50" width="1490" height="700" as="geometry" />
        </mxCell>
        <mxCell id="x5Plf8LEQ-hN1UP6LT7Q-39" value="MVC (Model -View-Controller)" style="text;html=1;align=center;verticalAlign=middle;whiteSpace=wrap;rounded=0;fontStyle=1;fontSize=35;" parent="1" vertex="1">
          <mxGeometry x="-60" y="640" width="570" height="80" as="geometry" />
        </mxCell>
        <mxCell id="x5Plf8LEQ-hN1UP6LT7Q-40" value="MVC - DAO (Data Access Object)" style="text;html=1;align=center;verticalAlign=middle;whiteSpace=wrap;rounded=0;fontStyle=1;fontSize=35;" parent="1" vertex="1">
          <mxGeometry x="240" y="790" width="570" height="80" as="geometry" />
        </mxCell>
        <mxCell id="x5Plf8LEQ-hN1UP6LT7Q-42" value="Page" style="html=1;whiteSpace=wrap;strokeColor=none;fillColor=#0079D6;labelPosition=center;verticalLabelPosition=middle;verticalAlign=top;align=center;fontSize=12;outlineConnect=0;spacingTop=-6;fontColor=#FFFFFF;sketch=0;shape=mxgraph.sitemap.page;" parent="1" vertex="1">
          <mxGeometry x="500" y="520" width="100" height="90" as="geometry" />
        </mxCell>
        <mxCell id="x5Plf8LEQ-hN1UP6LT7Q-43" value="Page" style="html=1;whiteSpace=wrap;strokeColor=none;fillColor=#0079D6;labelPosition=center;verticalLabelPosition=middle;verticalAlign=top;align=center;fontSize=12;outlineConnect=0;spacingTop=-6;fontColor=#FFFFFF;sketch=0;shape=mxgraph.sitemap.page;" parent="1" vertex="1">
          <mxGeometry x="300" y="520" width="100" height="90" as="geometry" />
        </mxCell>
        <mxCell id="x5Plf8LEQ-hN1UP6LT7Q-44" value="/addStudentInfo" style="text;html=1;align=center;verticalAlign=middle;whiteSpace=wrap;rounded=0;fontStyle=1;fontSize=15;" parent="1" vertex="1">
          <mxGeometry x="570" y="490" width="70" height="30" as="geometry" />
        </mxCell>
        <mxCell id="x5Plf8LEQ-hN1UP6LT7Q-45" value="/deleteStudentInfo" style="text;html=1;align=center;verticalAlign=middle;whiteSpace=wrap;rounded=0;fontStyle=1;fontSize=15;" parent="1" vertex="1">
          <mxGeometry x="280" y="490" width="70" height="30" as="geometry" />
        </mxCell>
        <mxCell id="cV37m4zQsboVLEc6ehHm-4" value="&lt;b&gt;&lt;font style=&quot;font-size: 15px;&quot;&gt;DTO&lt;/font&gt;&lt;/b&gt;" style="shape=mxgraph.bpmn.data;labelPosition=center;verticalLabelPosition=bottom;align=center;verticalAlign=top;size=15;html=1;" vertex="1" parent="1">
          <mxGeometry x="670" y="240" width="75" height="40" as="geometry" />
        </mxCell>
        <mxCell id="cV37m4zQsboVLEc6ehHm-5" value="&lt;b&gt;&lt;font style=&quot;font-size: 15px;&quot;&gt;DTO&lt;/font&gt;&lt;/b&gt;" style="shape=mxgraph.bpmn.data;labelPosition=center;verticalLabelPosition=bottom;align=center;verticalAlign=top;size=0;html=1;" vertex="1" parent="1">
          <mxGeometry x="860" y="250" width="75" height="40" as="geometry" />
        </mxCell>
        <mxCell id="cV37m4zQsboVLEc6ehHm-6" value="&lt;b style=&quot;font-size: 23px;&quot;&gt;&lt;font style=&quot;font-size: 23px;&quot;&gt;DTO of Student Object&lt;/font&gt;&lt;/b&gt;&lt;div style=&quot;font-size: 23px;&quot;&gt;&lt;b&gt;&lt;font style=&quot;font-size: 23px;&quot;&gt;&lt;br&gt;&lt;/font&gt;&lt;/b&gt;&lt;/div&gt;&lt;div style=&quot;font-size: 23px;&quot;&gt;&lt;b&gt;&lt;font style=&quot;font-size: 23px;&quot;&gt;&lt;span style=&quot;white-space: pre;&quot;&gt;&#x9;&lt;/span&gt;- Name&lt;/font&gt;&lt;/b&gt;&lt;/div&gt;&lt;div style=&quot;font-size: 23px;&quot;&gt;&lt;b&gt;&lt;font style=&quot;font-size: 23px;&quot;&gt;&lt;span style=&quot;white-space: pre;&quot;&gt;&#x9;&lt;/span&gt;- ID&lt;/font&gt;&lt;/b&gt;&lt;/div&gt;&lt;div style=&quot;font-size: 23px;&quot;&gt;&lt;b&gt;&lt;font style=&quot;font-size: 23px;&quot;&gt;&lt;span style=&quot;white-space: pre;&quot;&gt;&#x9;&lt;/span&gt;- City&lt;/font&gt;&lt;/b&gt;&lt;/div&gt;&lt;div style=&quot;font-size: 23px;&quot;&gt;&lt;b&gt;&lt;font style=&quot;font-size: 23px;&quot;&gt;&lt;span style=&quot;white-space: pre;&quot;&gt;&#x9;&lt;/span&gt;- Parents Name&lt;/font&gt;&lt;/b&gt;&lt;/div&gt;&lt;div style=&quot;font-size: 23px;&quot;&gt;&lt;b style=&quot;&quot;&gt;&lt;font style=&quot;font-size: 23px;&quot;&gt;&lt;span style=&quot;white-space: pre;&quot;&gt;&#x9;&lt;/span&gt;- DOB&lt;br&gt;&lt;/font&gt;&lt;/b&gt;&lt;div&gt;&lt;br&gt;&lt;/div&gt;&lt;/div&gt;" style="text;html=1;whiteSpace=wrap;overflow=hidden;rounded=0;fillColor=#E8FDFF;strokeColor=default;" vertex="1" parent="1">
          <mxGeometry x="775" y="400" width="270" height="220" as="geometry" />
        </mxCell>
      </root>
    </mxGraphModel>
  </diagram>
</mxfile>
